<mxfile host="app.diagrams.net" modified="2023-03-21T12:01:55.379Z" agent="5.0 (Macintosh; Intel Mac OS X 10_15_7) AppleWebKit/537.36 (KHTML, like Gecko) Chrome/111.0.0.0 Safari/537.36 Edg/111.0.1661.44" etag="uH-Oe79U-MIFdBmeZMqv" version="21.0.8" type="github">
  <diagram name="第 1 页" id="xnZAwhMRTV7Df8u25ypF">
    <mxGraphModel dx="1434" dy="796" grid="1" gridSize="10" guides="1" tooltips="1" connect="1" arrows="1" fold="1" page="1" pageScale="1" pageWidth="827" pageHeight="1169" math="0" shadow="0">
      <root>
        <mxCell id="0" />
        <mxCell id="1" parent="0" />
        <mxCell id="gdcxHCw4ucIBvffqDUHt-31" value="" style="rounded=1;whiteSpace=wrap;html=1;" vertex="1" parent="1">
          <mxGeometry x="200" y="200" width="290" height="510" as="geometry" />
        </mxCell>
        <mxCell id="gdcxHCw4ucIBvffqDUHt-12" value="" style="rounded=1;whiteSpace=wrap;html=1;fillColor=#dae8fc;strokeColor=#6c8ebf;" vertex="1" parent="1">
          <mxGeometry x="230" y="560" width="230" height="100" as="geometry" />
        </mxCell>
        <mxCell id="gdcxHCw4ucIBvffqDUHt-1" value="websocket(s)" style="rounded=1;whiteSpace=wrap;html=1;fillColor=#dae8fc;strokeColor=#6c8ebf;" vertex="1" parent="1">
          <mxGeometry x="230" y="240" width="110" height="20" as="geometry" />
        </mxCell>
        <mxCell id="gdcxHCw4ucIBvffqDUHt-2" value="http(s)" style="rounded=1;whiteSpace=wrap;html=1;fillColor=#dae8fc;strokeColor=#6c8ebf;" vertex="1" parent="1">
          <mxGeometry x="340" y="240" width="120" height="20" as="geometry" />
        </mxCell>
        <mxCell id="gdcxHCw4ucIBvffqDUHt-3" value="国密、非国密" style="rounded=1;whiteSpace=wrap;html=1;fillColor=#dae8fc;strokeColor=#6c8ebf;" vertex="1" parent="1">
          <mxGeometry x="230" y="260" width="230" height="30" as="geometry" />
        </mxCell>
        <mxCell id="gdcxHCw4ucIBvffqDUHt-4" value="" style="rounded=1;whiteSpace=wrap;html=1;fillColor=#dae8fc;strokeColor=#6c8ebf;" vertex="1" parent="1">
          <mxGeometry x="230" y="290" width="230" height="180" as="geometry" />
        </mxCell>
        <mxCell id="gdcxHCw4ucIBvffqDUHt-5" value="asio" style="rounded=1;whiteSpace=wrap;html=1;fillColor=#dae8fc;strokeColor=#6c8ebf;" vertex="1" parent="1">
          <mxGeometry x="269.37" y="630" width="140.63" height="20" as="geometry" />
        </mxCell>
        <mxCell id="gdcxHCw4ucIBvffqDUHt-6" value="beast" style="rounded=1;whiteSpace=wrap;html=1;fillColor=#dae8fc;strokeColor=#6c8ebf;" vertex="1" parent="1">
          <mxGeometry x="269.37" y="610" width="140.63" height="20" as="geometry" />
        </mxCell>
        <mxCell id="gdcxHCw4ucIBvffqDUHt-7" value="tassl" style="rounded=1;whiteSpace=wrap;html=1;fillColor=#dae8fc;strokeColor=#6c8ebf;" vertex="1" parent="1">
          <mxGeometry x="230" y="530" width="230" height="30" as="geometry" />
        </mxCell>
        <mxCell id="gdcxHCw4ucIBvffqDUHt-8" value="" style="rounded=1;whiteSpace=wrap;html=1;fillColor=#dae8fc;strokeColor=#6c8ebf;" vertex="1" parent="1">
          <mxGeometry x="230" y="470" width="230" height="60" as="geometry" />
        </mxCell>
        <mxCell id="gdcxHCw4ucIBvffqDUHt-9" value="工具类" style="rounded=1;whiteSpace=wrap;html=1;fillColor=#dae8fc;strokeColor=#6c8ebf;" vertex="1" parent="1">
          <mxGeometry x="320" y="480" width="50" height="10" as="geometry" />
        </mxCell>
        <mxCell id="gdcxHCw4ucIBvffqDUHt-10" value="证书加载" style="rounded=1;whiteSpace=wrap;html=1;fillColor=#dae8fc;strokeColor=#6c8ebf;" vertex="1" parent="1">
          <mxGeometry x="260" y="500" width="50" height="20" as="geometry" />
        </mxCell>
        <mxCell id="gdcxHCw4ucIBvffqDUHt-11" value="其他工具" style="rounded=1;whiteSpace=wrap;html=1;fillColor=#dae8fc;strokeColor=#6c8ebf;" vertex="1" parent="1">
          <mxGeometry x="380" y="500" width="50" height="20" as="geometry" />
        </mxCell>
        <mxCell id="gdcxHCw4ucIBvffqDUHt-13" value="thread" style="rounded=1;whiteSpace=wrap;html=1;fillColor=#dae8fc;strokeColor=#6c8ebf;" vertex="1" parent="1">
          <mxGeometry x="269.37" y="590" width="140.63" height="20" as="geometry" />
        </mxCell>
        <mxCell id="gdcxHCw4ucIBvffqDUHt-14" value="boost" style="rounded=1;whiteSpace=wrap;html=1;fillColor=#dae8fc;strokeColor=#6c8ebf;glass=0;" vertex="1" parent="1">
          <mxGeometry x="320" y="570" width="50" height="10" as="geometry" />
        </mxCell>
        <mxCell id="gdcxHCw4ucIBvffqDUHt-16" value="WsService" style="rounded=1;whiteSpace=wrap;html=1;fillColor=#dae8fc;strokeColor=#6c8ebf;" vertex="1" parent="1">
          <mxGeometry x="314.68" y="300" width="60.63" height="20" as="geometry" />
        </mxCell>
        <mxCell id="gdcxHCw4ucIBvffqDUHt-17" value="配置项" style="rounded=1;whiteSpace=wrap;html=1;fillColor=#dae8fc;strokeColor=#6c8ebf;" vertex="1" parent="1">
          <mxGeometry x="250" y="360" width="190" height="20" as="geometry" />
        </mxCell>
        <mxCell id="gdcxHCw4ucIBvffqDUHt-18" value="网络重连" style="rounded=1;whiteSpace=wrap;html=1;fillColor=#dae8fc;strokeColor=#6c8ebf;" vertex="1" parent="1">
          <mxGeometry x="310" y="420" width="70" height="30" as="geometry" />
        </mxCell>
        <mxCell id="gdcxHCw4ucIBvffqDUHt-19" value="连接建立、断链、消息回调注册" style="rounded=1;whiteSpace=wrap;html=1;fillColor=#dae8fc;strokeColor=#6c8ebf;" vertex="1" parent="1">
          <mxGeometry x="250" y="380" width="190" height="20" as="geometry" />
        </mxCell>
        <mxCell id="gdcxHCw4ucIBvffqDUHt-21" value="端口监听" style="rounded=1;whiteSpace=wrap;html=1;fillColor=#dae8fc;strokeColor=#6c8ebf;" vertex="1" parent="1">
          <mxGeometry x="250" y="420" width="60" height="30" as="geometry" />
        </mxCell>
        <mxCell id="gdcxHCw4ucIBvffqDUHt-22" value="session管理" style="rounded=1;whiteSpace=wrap;html=1;fillColor=#dae8fc;strokeColor=#6c8ebf;" vertex="1" parent="1">
          <mxGeometry x="250" y="400" width="90" height="20" as="geometry" />
        </mxCell>
        <mxCell id="gdcxHCw4ucIBvffqDUHt-28" value="心跳保活" style="rounded=1;whiteSpace=wrap;html=1;fillColor=#dae8fc;strokeColor=#6c8ebf;" vertex="1" parent="1">
          <mxGeometry x="380" y="420" width="60" height="30" as="geometry" />
        </mxCell>
        <mxCell id="gdcxHCw4ucIBvffqDUHt-29" value="回调管理" style="rounded=1;whiteSpace=wrap;html=1;fillColor=#dae8fc;strokeColor=#6c8ebf;" vertex="1" parent="1">
          <mxGeometry x="340" y="400" width="100" height="20" as="geometry" />
        </mxCell>
        <mxCell id="gdcxHCw4ucIBvffqDUHt-30" value="接口：&lt;br&gt;单播，多播，广播" style="rounded=1;whiteSpace=wrap;html=1;fillColor=#dae8fc;strokeColor=#6c8ebf;" vertex="1" parent="1">
          <mxGeometry x="250" y="330" width="190" height="30" as="geometry" />
        </mxCell>
        <mxCell id="gdcxHCw4ucIBvffqDUHt-32" value="boostssl" style="text;html=1;align=center;verticalAlign=middle;resizable=0;points=[];autosize=1;strokeColor=#d6b656;fillColor=#fff2cc;rounded=1;sketch=1;curveFitting=1;jiggle=2;" vertex="1" parent="1">
          <mxGeometry x="295" y="165" width="70" height="30" as="geometry" />
        </mxCell>
      </root>
    </mxGraphModel>
  </diagram>
</mxfile>
